<svg id="emoji" viewBox="0 0 72 72" xmlns="http://www.w3.org/2000/svg">
  <g id="color">
    <path fill="#f4aa41" stroke="none" d="M48 16c-3 0-6 2-7 5l-2 5c-1 2-3 4-5 5-4 2-7 6-8 11-1 5 1 10 6 11 3 1 6-1 8-3 2-2 4-5 6-7 2-2 4-5 5-9 1-3 1-7-1-10-1-3-3-6-6-7-1 0-2-1-2-1z"/>
    <path fill="#ea5a47" stroke="none" d="M41 21c-1-2-3-3-5-2-2 1-3 3-2 5 1 2 3 3 5 2 1-1 2-3 2-5z"/>
    <path fill="#fcea2b" stroke="none" d="M22 47c-3 2-5 6-4 10 1 4 5 7 9 6 4-1 7-5 7-9 0-4-3-8-7-9-2-1-4 0-5 2z"/>
    <path fill="#f4aa41" stroke="none" d="M20 52c-2 2-2 5 0 7 2 2 5 2 7 0"/>
    <circle cx="44" cy="19" r="2.5" fill="#fff"/>
    <circle cx="44.8" cy="19" r="1.2" fill="#000"/>
  </g>
  <g id="line">
    <path fill="none" stroke="#000" stroke-linecap="round" stroke-linejoin="round" stroke-miterlimit="10" stroke-width="2" d="M48 16c-3 0-6 2-7 5l-2 5c-1 2-3 4-5 5-4 2-7 6-8 11-1 5 1 10 6 11 3 1 6-1 8-3 2-2 4-5 6-7 2-2 4-5 5-9 1-3 1-7-1-10-1-3-3-6-6-7"/>
    <path fill="none" stroke="#000" stroke-linecap="round" stroke-linejoin="round" stroke-miterlimit="10" stroke-width="2" d="M41 21c-1-2-3-3-5-2-2 1-3 3-2 5 1 2 3 3 5 2"/>
    <path fill="none" stroke="#000" stroke-linecap="round" stroke-linejoin="round" stroke-miterlimit="10" stroke-width="2" d="M22 47c-3 2-5 6-4 10 1 4 5 7 9 6 4-1 7-5 7-9 0-4-3-8-7-9"/>
    <path fill="none" stroke="#000" stroke-linecap="round" stroke-linejoin="round" stroke-miterlimit="10" stroke-width="2" d="M20 52c-2 2-2 5 0 7 2 2 5 2 7 0"/>
    <path fill="none" stroke="#000" stroke-linecap="round" stroke-linejoin="round" stroke-miterlimit="10" stroke-width="2" d="M34 34c1 2 2 4 2 6"/>
  </g>
</svg>
